# xmcd CD database file
#
# Track frame offsets:
#	150
#	18271
#	39301
#	55033
#	72836
#	88859
#	158024
#	175837
#	190010
#	207430
#	225370
#	259319
#	291770
#	302895
#	321635
#
# Disc length: 4434 seconds
#
# Revision: 1
# Processed by: cddbd v1.5.2PL0 Copyright (c) Steve Scherf et al.
# Submitted via: CDex 1.70beta2
#
DISCID=cc11500f
DTITLE=Various Artist - The Wire - Atlantic Waves 2006 [CD2)
DYEAR=2006
DGENRE=Jazz
TTITLE0=Max Eastley - Two 150 kilo blocks of melting ice with layers of stones emedded falling onto a metal plate for climate change project Cape Farewell
TTITLE1=Z'ev - The Smoking Key
TTITLE2=Robert Rutman - Live At King Kong Club, 11.2.05
TTITLE3=Victor Gama - Jetstream (Wind On Totem Harp)
TTITLE4=Asmus Tietchens - S.4
TTITLE5=Thomas Koner - Tu, Sempre
TTITLE6=Paulo Raposo - Stanza (For Marta)
TTITLE7=John Duncan - Helix
TTITLE8=Alfredo Costa Monteiro - Umbral
TTITLE9=Akira Rabelais - July_10TH_2006
TTITLE10=Philip Jeck - June
TTITLE11=Oren Ambarchi - Happy Ending
TTITLE12=Margarida Garcia and Manuel Mota - Amiens
TTITLE13=David Maranha - Berceuse Pour Ema
TTITLE14=Arnold Dreyblatt - Brushtones
EXTD=YEAR: 2006
EXTT0=
EXTT1=
EXTT2=
EXTT3=
EXTT4=
EXTT5=
EXTT6=
EXTT7=
EXTT8=
EXTT9=
EXTT10=
EXTT11=
EXTT12=
EXTT13=
EXTT14=
PLAYORDER=
